<svg width="19" height="26" viewBox="0 0 19 26" fill="none" xmlns="http://www.w3.org/2000/svg">
<path d="M12.5788 4.80037C11.7818 5.81369 10.5067 6.61293 9.23153 6.49876C9.07214 5.12863 9.69643 3.67287 10.427 2.77372C11.2239 1.73186 12.6186 0.989706 13.7477 0.932617C13.8805 2.35983 13.3625 3.7585 12.5788 4.80037Z" fill="white"/>
<path d="M13.7343 6.76985C12.6109 6.70038 11.5859 7.13286 10.7579 7.48218C10.2251 7.70698 9.77391 7.89735 9.43066 7.89735C9.04545 7.89735 8.57564 7.6968 8.04814 7.47164C7.35695 7.1766 6.56673 6.83929 5.73805 6.85548C3.83862 6.88402 2.07202 8.04007 1.10238 9.88117C-0.890036 13.5634 0.584348 19.0153 2.51035 22.0125C3.45342 23.4968 4.58245 25.1238 6.07012 25.0667C6.72461 25.0402 7.1954 24.8255 7.68263 24.6034C8.24357 24.3476 8.82629 24.0819 9.73616 24.0819C10.6145 24.0819 11.1717 24.3407 11.7066 24.5891C12.2152 24.8253 12.7037 25.0521 13.4288 25.0382C14.9696 25.0096 15.9392 23.5539 16.8823 22.0696C17.9 20.4765 18.3472 18.9218 18.4151 18.6858L18.4231 18.6585C18.4214 18.6568 18.4089 18.6506 18.3867 18.6397C18.0465 18.4723 15.4461 17.1932 15.4212 13.7632C15.3961 10.8842 17.4837 9.4255 17.8123 9.19588C17.8323 9.1819 17.8458 9.17248 17.8519 9.16757C16.5236 7.05529 14.4515 6.82694 13.7343 6.76985Z" fill="white"/>
</svg>
