<svg width="24" height="24" viewBox="0 0 24 24" fill="none" xmlns="http://www.w3.org/2000/svg">
<rect width="24" height="24" fill="#333333"/>
<g clip-path="url(#clip0_1559_413)">
<rect x="-335" y="-888" width="375" height="1208" rx="30" fill="white"/>
<rect x="-335" y="-888" width="375" height="1308" fill="black"/>
<g clip-path="url(#clip1_1559_413)">
<mask id="path-3-inside-1_1559_413" fill="white">
<path d="M12 2C10.0222 2 8.08879 2.58649 6.4443 3.6853C4.79981 4.78412 3.51809 6.3459 2.76121 8.17316C2.00433 10.0004 1.8063 12.0111 2.19215 13.9509C2.578 15.8907 3.53041 17.6725 4.92894 19.0711C6.32746 20.4696 8.10929 21.422 10.0491 21.8078C11.9889 22.1937 13.9996 21.9957 15.8268 21.2388C17.6541 20.4819 19.2159 19.2002 20.3147 17.5557C21.4135 15.9112 22 13.9778 22 12C21.9971 9.34871 20.9426 6.80684 19.0679 4.9321C17.1932 3.05736 14.6513 2.00287 12 2V2ZM12 20.3333C10.3518 20.3333 8.74066 19.8446 7.37025 18.9289C5.99984 18.0132 4.93174 16.7117 4.30101 15.189C3.67028 13.6663 3.50525 11.9908 3.82679 10.3742C4.14834 8.75774 4.94201 7.27288 6.10745 6.10744C7.27288 4.94201 8.75774 4.14833 10.3743 3.82679C11.9908 3.50525 13.6663 3.67027 15.189 4.301C16.7117 4.93173 18.0132 5.99984 18.9289 7.37025C19.8446 8.74066 20.3333 10.3518 20.3333 12C20.3309 14.2094 19.4522 16.3276 17.8899 17.8899C16.3276 19.4522 14.2094 20.3309 12 20.3333V20.3333Z"/>
</mask>
<path d="M12 2C10.0222 2 8.08879 2.58649 6.4443 3.6853C4.79981 4.78412 3.51809 6.3459 2.76121 8.17316C2.00433 10.0004 1.8063 12.0111 2.19215 13.9509C2.578 15.8907 3.53041 17.6725 4.92894 19.0711C6.32746 20.4696 8.10929 21.422 10.0491 21.8078C11.9889 22.1937 13.9996 21.9957 15.8268 21.2388C17.6541 20.4819 19.2159 19.2002 20.3147 17.5557C21.4135 15.9112 22 13.9778 22 12C21.9971 9.34871 20.9426 6.80684 19.0679 4.9321C17.1932 3.05736 14.6513 2.00287 12 2V2ZM12 20.3333C10.3518 20.3333 8.74066 19.8446 7.37025 18.9289C5.99984 18.0132 4.93174 16.7117 4.30101 15.189C3.67028 13.6663 3.50525 11.9908 3.82679 10.3742C4.14834 8.75774 4.94201 7.27288 6.10745 6.10744C7.27288 4.94201 8.75774 4.14833 10.3743 3.82679C11.9908 3.50525 13.6663 3.67027 15.189 4.301C16.7117 4.93173 18.0132 5.99984 18.9289 7.37025C19.8446 8.74066 20.3333 10.3518 20.3333 12C20.3309 14.2094 19.4522 16.3276 17.8899 17.8899C16.3276 19.4522 14.2094 20.3309 12 20.3333V20.3333Z" fill="#DAA930" stroke="#DAA930" stroke-width="42.6667" mask="url(#path-3-inside-1_1559_413)"/>
<mask id="path-4-inside-2_1559_413" fill="white">
<path d="M12.1441 7C11.9171 7 11.6995 7.09073 11.539 7.25224C11.3785 7.41375 11.2883 7.6328 11.2883 7.86121V11.586L8.40329 13.4048C8.21036 13.5261 8.07321 13.7196 8.02201 13.9426C7.97081 14.1656 8.00976 14.4 8.13028 14.5942C8.25081 14.7883 8.44304 14.9263 8.66469 14.9779C8.88634 15.0294 9.11925 14.9902 9.31218 14.8689L12.5986 12.802C12.7227 12.7237 12.8249 12.6146 12.8951 12.4853C12.9654 12.3559 13.0015 12.2105 13 12.0631V7.86121C13 7.6328 12.9098 7.41375 12.7493 7.25224C12.5888 7.09073 12.3711 7 12.1441 7Z"/>
</mask>
<path d="M12.1441 7C11.9171 7 11.6995 7.09073 11.539 7.25224C11.3785 7.41375 11.2883 7.6328 11.2883 7.86121V11.586L8.40329 13.4048C8.21036 13.5261 8.07321 13.7196 8.02201 13.9426C7.97081 14.1656 8.00976 14.4 8.13028 14.5942C8.25081 14.7883 8.44304 14.9263 8.66469 14.9779C8.88634 15.0294 9.11925 14.9902 9.31218 14.8689L12.5986 12.802C12.7227 12.7237 12.8249 12.6146 12.8951 12.4853C12.9654 12.3559 13.0015 12.2105 13 12.0631V7.86121C13 7.6328 12.9098 7.41375 12.7493 7.25224C12.5888 7.09073 12.3711 7 12.1441 7Z" fill="#DAA930" stroke="#DAA930" stroke-width="42.6667" mask="url(#path-4-inside-2_1559_413)"/>
</g>
</g>
<defs>
<clipPath id="clip0_1559_413">
<rect x="-335" y="-888" width="375" height="1208" rx="30" fill="white"/>
</clipPath>
<clipPath id="clip1_1559_413">
<rect width="343" height="72" fill="white" transform="translate(-319 -24)"/>
</clipPath>
</defs>
</svg>
