<svg width="42" height="42" viewBox="0 0 42 42" fill="none" xmlns="http://www.w3.org/2000/svg">
<mask id="path-1-inside-1_3977_1669" fill="white">
<path d="M21.0006 41.2101C18.262 41.2101 15.6785 40.0076 13.9134 37.9108C11.3197 38.2072 8.64688 37.2286 6.71004 35.2918C4.77488 33.355 3.79804 30.6771 4.03214 27.9453C1.99257 26.3217 0.790039 23.7381 0.790039 20.9996C0.790039 18.2611 1.99257 15.6775 4.09109 13.9124C3.79636 11.3238 4.7732 8.64591 6.71004 6.70906C8.64688 4.77222 11.3197 3.79033 14.0549 4.03117C15.6785 1.99327 18.262 0.789062 21.0006 0.789062C23.7391 0.789062 26.3227 1.99159 28.0877 4.08843C30.6848 3.79706 33.3543 4.77054 35.2911 6.70738C37.2263 8.64422 38.2031 11.3221 37.969 14.0539C40.0086 15.6775 41.2111 18.2611 41.2111 20.9996C41.2111 23.7381 40.0086 26.3217 37.91 28.0867C38.2048 30.6754 37.2279 33.3533 35.2911 35.2901C33.3526 37.227 30.6747 38.1971 27.9463 37.968C26.3227 40.0059 23.7391 41.2101 21.0006 41.2101V41.2101ZM14.0498 34.6013C14.9947 34.6013 15.8705 35.0072 16.4886 35.7398C17.6136 37.0754 19.2574 37.8417 21.0006 37.8417C22.7437 37.8417 24.3875 37.0754 25.5126 35.7398C26.1913 34.9331 27.1799 34.5255 28.2343 34.6114C29.9757 34.7579 31.6768 34.1398 32.9096 32.907C34.1408 31.6758 34.7623 29.9714 34.614 28.2316C34.5231 27.1806 34.934 26.1886 35.7425 25.5082C37.0764 24.3849 37.8427 22.7394 37.8427 20.9979C37.8427 19.2564 37.0764 17.611 35.7425 16.4876C34.9357 15.8089 34.5231 14.8152 34.614 13.7642C34.7623 12.0244 34.1425 10.32 32.9096 9.08885C31.6768 7.85769 29.9656 7.24633 28.2359 7.38443C27.1816 7.47875 26.1913 7.06275 25.5126 6.25769C24.3875 4.92212 22.7437 4.1558 21.0006 4.1558C19.2574 4.1558 17.6136 4.92212 16.4886 6.25769C15.8081 7.06443 14.8161 7.46864 13.7669 7.38612C12.017 7.23454 10.3244 7.85769 9.09151 9.09054C7.86036 10.3217 7.23888 12.0261 7.38709 13.7659C7.47804 14.8169 7.06709 15.8089 6.25867 16.4893C4.92478 17.6126 4.15846 19.2581 4.15846 20.9996C4.15846 22.7411 4.92478 24.3865 6.25867 25.5099C7.06541 26.1886 7.47804 27.1823 7.38709 28.2333C7.23888 29.9731 7.85867 31.6775 9.09151 32.9086C10.3244 34.1398 12.0439 34.7529 13.7652 34.6131C13.8612 34.6046 13.9555 34.6013 14.0498 34.6013V34.6013ZM22.3496 26.2796L30.3311 18.5861C30.9997 17.9411 31.0199 16.8733 30.3732 16.2046C29.7281 15.536 28.662 15.5158 27.9917 16.1609L19.9884 23.8762C19.3298 24.5347 18.2671 24.5347 17.5631 23.8341L13.7265 20.2686C13.0494 19.6371 11.9816 19.6741 11.3467 20.3562C10.7134 21.0366 10.7521 22.1027 11.4343 22.736L15.2271 26.2594C16.214 27.2463 17.5126 27.7398 18.8077 27.7398C20.0961 27.7398 21.3778 27.2531 22.3513 26.2813L22.3496 26.2796Z"/>
</mask>
<path d="M21.0006 41.2101C18.262 41.2101 15.6785 40.0076 13.9134 37.9108C11.3197 38.2072 8.64688 37.2286 6.71004 35.2918C4.77488 33.355 3.79804 30.6771 4.03214 27.9453C1.99257 26.3217 0.790039 23.7381 0.790039 20.9996C0.790039 18.2611 1.99257 15.6775 4.09109 13.9124C3.79636 11.3238 4.7732 8.64591 6.71004 6.70906C8.64688 4.77222 11.3197 3.79033 14.0549 4.03117C15.6785 1.99327 18.262 0.789062 21.0006 0.789062C23.7391 0.789062 26.3227 1.99159 28.0877 4.08843C30.6848 3.79706 33.3543 4.77054 35.2911 6.70738C37.2263 8.64422 38.2031 11.3221 37.969 14.0539C40.0086 15.6775 41.2111 18.2611 41.2111 20.9996C41.2111 23.7381 40.0086 26.3217 37.91 28.0867C38.2048 30.6754 37.2279 33.3533 35.2911 35.2901C33.3526 37.227 30.6747 38.1971 27.9463 37.968C26.3227 40.0059 23.7391 41.2101 21.0006 41.2101V41.2101ZM14.0498 34.6013C14.9947 34.6013 15.8705 35.0072 16.4886 35.7398C17.6136 37.0754 19.2574 37.8417 21.0006 37.8417C22.7437 37.8417 24.3875 37.0754 25.5126 35.7398C26.1913 34.9331 27.1799 34.5255 28.2343 34.6114C29.9757 34.7579 31.6768 34.1398 32.9096 32.907C34.1408 31.6758 34.7623 29.9714 34.614 28.2316C34.5231 27.1806 34.934 26.1886 35.7425 25.5082C37.0764 24.3849 37.8427 22.7394 37.8427 20.9979C37.8427 19.2564 37.0764 17.611 35.7425 16.4876C34.9357 15.8089 34.5231 14.8152 34.614 13.7642C34.7623 12.0244 34.1425 10.32 32.9096 9.08885C31.6768 7.85769 29.9656 7.24633 28.2359 7.38443C27.1816 7.47875 26.1913 7.06275 25.5126 6.25769C24.3875 4.92212 22.7437 4.1558 21.0006 4.1558C19.2574 4.1558 17.6136 4.92212 16.4886 6.25769C15.8081 7.06443 14.8161 7.46864 13.7669 7.38612C12.017 7.23454 10.3244 7.85769 9.09151 9.09054C7.86036 10.3217 7.23888 12.0261 7.38709 13.7659C7.47804 14.8169 7.06709 15.8089 6.25867 16.4893C4.92478 17.6126 4.15846 19.2581 4.15846 20.9996C4.15846 22.7411 4.92478 24.3865 6.25867 25.5099C7.06541 26.1886 7.47804 27.1823 7.38709 28.2333C7.23888 29.9731 7.85867 31.6775 9.09151 32.9086C10.3244 34.1398 12.0439 34.7529 13.7652 34.6131C13.8612 34.6046 13.9555 34.6013 14.0498 34.6013V34.6013ZM22.3496 26.2796L30.3311 18.5861C30.9997 17.9411 31.0199 16.8733 30.3732 16.2046C29.7281 15.536 28.662 15.5158 27.9917 16.1609L19.9884 23.8762C19.3298 24.5347 18.2671 24.5347 17.5631 23.8341L13.7265 20.2686C13.0494 19.6371 11.9816 19.6741 11.3467 20.3562C10.7134 21.0366 10.7521 22.1027 11.4343 22.736L15.2271 26.2594C16.214 27.2463 17.5126 27.7398 18.8077 27.7398C20.0961 27.7398 21.3778 27.2531 22.3513 26.2813L22.3496 26.2796Z" fill="black"/>
<path d="M13.9134 37.9108L30.2342 24.1724L22.8631 15.4157L11.4911 16.7154L13.9134 37.9108ZM6.71004 35.2918L-8.38147 50.3702L-8.37491 50.3767L6.71004 35.2918ZM4.03214 27.9453L25.2876 29.7668L26.2638 18.3752L17.3186 11.2545L4.03214 27.9453ZM4.09109 13.9124L17.823 30.2387L26.5823 22.8713L25.2875 11.4991L4.09109 13.9124ZM14.0549 4.03117L12.1836 25.2823L23.5994 26.2875L30.7403 17.3243L14.0549 4.03117ZM28.0877 4.08843L11.7669 17.8268L19.1197 26.5617L30.4662 25.2888L28.0877 4.08843ZM35.2911 6.70738L50.3826 -8.37101L50.376 -8.37757L35.2911 6.70738ZM37.969 14.0539L16.7136 12.2324L15.7373 23.624L24.6825 30.7447L37.969 14.0539ZM37.91 28.0867L24.1782 11.7605L15.4188 19.1279L16.7137 30.5001L37.91 28.0867ZM35.2911 35.2901L50.3695 50.3816L50.376 50.3751L35.2911 35.2901ZM27.9463 37.968L29.7309 16.7095L18.3669 15.7554L11.2608 24.6748L27.9463 37.968ZM16.4886 35.7398L32.8045 21.9957L32.7993 21.9895L32.794 21.9832L16.4886 35.7398ZM25.5126 35.7398L41.8285 49.4839L41.8369 49.474L25.5126 35.7398ZM28.2343 34.6114L30.0229 13.3532L29.9947 13.3508L29.9665 13.3485L28.2343 34.6114ZM34.614 28.2316L55.8704 26.4208L55.8692 26.4066L55.8679 26.3923L34.614 28.2316ZM35.7425 25.5082L49.4798 41.8299L49.4847 41.8258L35.7425 25.5082ZM35.7425 16.4876L49.4847 0.170016L49.4767 0.163299L35.7425 16.4876ZM34.614 13.7642L55.8679 15.6035L55.8692 15.5893L55.8704 15.575L34.614 13.7642ZM28.2359 7.38443L26.538 -13.8812L26.4365 -13.8731L26.3351 -13.8641L28.2359 7.38443ZM25.5126 6.25769L9.19659 20.0018L9.20243 20.0087L25.5126 6.25769ZM16.4886 6.25769L32.7961 20.0118L32.8045 20.0018L16.4886 6.25769ZM13.7669 7.38612L11.9258 28.6399L12.01 28.6471L12.0941 28.6538L13.7669 7.38612ZM7.38709 13.7659L-13.8693 15.5767L-13.868 15.5909L-13.8668 15.6052L7.38709 13.7659ZM6.25867 16.4893L-7.4787 0.167641L-7.48353 0.171702L6.25867 16.4893ZM6.25867 25.5099L-7.48353 41.8275L-7.47554 41.8342L6.25867 25.5099ZM7.38709 28.2333L-13.8668 26.394L-13.868 26.4082L-13.8693 26.4225L7.38709 28.2333ZM13.7652 34.6131L15.4921 55.8764L15.5607 55.8708L15.6294 55.8648L13.7652 34.6131ZM22.3496 26.2796L7.54433 10.9201L-8.10744 26.0071L7.27187 41.3717L22.3496 26.2796ZM30.3311 18.5861L45.1364 33.9456L45.1429 33.9393L30.3311 18.5861ZM30.3732 16.2046L15.02 31.0164L15.0296 31.0264L15.0393 31.0364L30.3732 16.2046ZM27.9917 16.1609L13.1992 0.789019L13.1924 0.795556L13.1856 0.8021L27.9917 16.1609ZM19.9884 23.8762L5.18228 8.51747L5.04159 8.6531L4.90341 8.79128L19.9884 23.8762ZM17.5631 23.8341L32.6118 8.71304L32.3531 8.45555L32.0857 8.20705L17.5631 23.8341ZM13.7265 20.2686L-0.825513 35.8684L-0.810841 35.882L-0.796143 35.8957L13.7265 20.2686ZM11.3467 20.3562L-4.26839 5.82072L-4.26973 5.82215L11.3467 20.3562ZM11.4343 22.736L25.9537 7.10605L25.9491 7.10171L11.4343 22.736ZM15.2271 26.2594L30.312 11.1744L30.0343 10.8967L29.7466 10.6294L15.2271 26.2594ZM22.3513 26.2813L37.4232 41.3793L52.5415 26.2871L37.4291 11.1891L22.3513 26.2813ZM21.0006 19.8768C24.5605 19.8768 27.9485 21.457 30.2342 24.1724L-2.40742 51.6491C3.40841 58.5582 11.9636 62.5435 21.0006 62.5435V19.8768ZM11.4911 16.7154C15.7777 16.2255 19.4387 17.8506 21.795 20.2069L-8.37491 50.3767C-2.14498 56.6067 6.86179 60.1889 16.3357 59.1061L11.4911 16.7154ZM21.8015 20.2134C24.3147 22.7287 25.5901 26.2362 25.2876 29.7668L-17.2233 26.1238C-17.9941 35.118 -14.7649 43.9812 -8.38147 50.3702L21.8015 20.2134ZM17.3186 11.2545C20.6759 13.9271 22.1234 17.6493 22.1234 20.9996H-20.5433C-20.5433 29.8269 -16.6908 38.7163 -9.25431 44.636L17.3186 11.2545ZM22.1234 20.9996C22.1234 24.5608 20.5418 27.9519 17.823 30.2387L-9.64078 -2.41383C-16.5567 3.4031 -20.5433 11.9614 -20.5433 20.9996H22.1234ZM25.2875 11.4991C25.774 15.7718 24.1611 19.4279 21.795 21.794L-8.37491 -8.37588C-14.6147 -2.13609 -18.1813 6.87582 -17.1053 16.3258L25.2875 11.4991ZM21.795 21.794C19.3028 24.2862 15.7806 25.599 12.1836 25.2823L15.9261 -17.2199C6.85882 -18.0184 -2.00908 -14.7417 -8.37491 -8.37588L21.795 21.794ZM30.7403 17.3243C28.0741 20.6709 24.3591 22.1224 21.0006 22.1224V-20.5443C12.165 -20.5443 3.28284 -16.6844 -2.63053 -9.262L30.7403 17.3243ZM21.0006 22.1224C17.4406 22.1224 14.0526 20.5421 11.7669 17.8268L44.4086 -9.6499C38.5927 -16.559 30.0376 -20.5443 21.0006 -20.5443V22.1224ZM30.4662 25.2888C26.239 25.763 22.5831 24.1693 20.2062 21.7923L50.376 -8.37757C44.1254 -14.6282 35.1305 -18.1689 25.7092 -17.1119L30.4662 25.2888ZM20.1996 21.7858C17.6865 19.2704 16.411 15.763 16.7136 12.2324L59.2244 15.8754C59.9952 6.88122 56.766 -1.98201 50.3826 -8.371L20.1996 21.7858ZM24.6825 30.7447C21.3252 28.0721 19.8778 24.3499 19.8778 20.9996H62.5444C62.5444 12.1723 58.692 3.28288 51.2554 -2.63685L24.6825 30.7447ZM19.8778 20.9996C19.8778 17.4384 21.4593 14.0473 24.1782 11.7605L51.6419 44.413C58.5579 38.5961 62.5444 30.0378 62.5444 20.9996H19.8778ZM16.7137 30.5001C16.2272 26.2274 17.84 22.5713 20.2062 20.2052L50.376 50.3751C56.6158 44.1353 60.1824 35.1234 59.1064 25.6734L16.7137 30.5001ZM20.2127 20.1986C22.7483 17.6652 26.2529 16.4175 29.7309 16.7095L26.1616 59.2266C35.0964 59.9767 43.9568 56.7887 50.3695 50.3816L20.2127 20.1986ZM11.2608 24.6748C13.9271 21.3283 17.642 19.8768 21.0006 19.8768V62.5435C29.8362 62.5435 38.7183 58.6836 44.6317 51.2612L11.2608 24.6748ZM14.0498 55.9346C8.67575 55.9346 3.59716 53.543 0.183104 49.4964L32.794 21.9832C28.1438 16.4713 21.3136 13.2679 14.0498 13.2679V55.9346ZM0.172595 49.4839C5.33788 55.6157 12.9452 59.175 21.0006 59.175V16.5084C25.5696 16.5084 29.8894 18.535 32.8045 21.9957L0.172595 49.4839ZM21.0006 59.175C29.0559 59.175 36.6633 55.6157 41.8285 49.4839L9.1966 21.9957C12.1118 18.535 16.4316 16.5084 21.0006 16.5084V59.175ZM41.8369 49.474C38.0179 54.0132 32.2493 56.3425 26.502 55.8743L29.9665 13.3485C22.1106 12.7085 14.3647 15.853 9.18828 22.0056L41.8369 49.474ZM26.4456 55.8696C34.4015 56.539 42.2887 53.6978 47.9946 47.9919L17.8247 17.822C21.0649 14.5818 25.55 12.9768 30.0229 13.3532L26.4456 55.8696ZM47.9946 47.9919C53.6862 42.3003 56.5508 34.4078 55.8704 26.4208L13.3577 30.0424C12.9737 25.535 14.5954 21.0513 17.8247 17.822L47.9946 47.9919ZM55.8679 26.3923C56.3765 32.2694 53.9733 38.0479 49.4798 41.8299L22.0051 9.18659C15.8948 14.3294 12.6697 22.0919 13.3601 30.0709L55.8679 26.3923ZM49.4847 41.8258C55.6227 36.6565 59.176 29.0436 59.176 20.9979H16.5093C16.5093 16.4352 18.53 12.1132 22.0003 9.19065L49.4847 41.8258ZM59.176 20.9979C59.176 12.9523 55.6227 5.33934 49.4847 0.170018L22.0003 32.8052C18.53 29.8826 16.5093 25.5606 16.5093 20.9979H59.176ZM49.4767 0.163299C53.9706 3.94419 56.377 9.72085 55.8679 15.6035L13.3601 11.9249C12.6692 19.9095 15.9009 27.6735 22.0082 32.8119L49.4767 0.163299ZM55.8704 15.575C56.5497 7.60096 53.697 -0.3015 47.9842 -6.0064L17.835 24.1841C14.588 20.9415 12.9748 16.4479 13.3577 11.9534L55.8704 15.575ZM47.9842 -6.0064C42.2321 -11.7507 34.3486 -14.5049 26.538 -13.8812L29.9339 28.6501C25.5827 28.9975 21.1214 27.4661 17.835 24.1841L47.9842 -6.0064ZM26.3351 -13.8641C32.3116 -14.3987 38.0827 -11.9294 41.8227 -7.49332L9.20243 20.0087C14.2999 26.0549 22.0516 29.3562 30.1368 28.6329L26.3351 -13.8641ZM41.8285 -7.4864C36.6633 -13.6182 29.0559 -17.1775 21.0006 -17.1775V25.4891C16.4315 25.4891 12.1118 23.4625 9.1966 20.0018L41.8285 -7.4864ZM21.0006 -17.1775C12.9452 -17.1775 5.33787 -13.6182 0.172595 -7.4864L32.8045 20.0018C29.8894 23.4625 25.5696 25.4891 21.0006 25.4891V-17.1775ZM0.18106 -7.49645C4.02386 -12.0526 9.77628 -14.327 15.4396 -13.8815L12.0941 28.6538C19.856 29.2643 27.5924 26.1815 32.7961 20.0118L0.18106 -7.49645ZM15.6079 -13.8676C7.55291 -14.5654 -0.326787 -11.6611 -5.99343 -5.99441L24.1765 24.1755C20.9755 27.3764 16.4811 29.0344 11.9258 28.6399L15.6079 -13.8676ZM-5.99343 -5.99441C-11.6851 -0.302769 -14.5497 7.58974 -13.8693 15.5767L28.6434 11.9551C29.0274 16.4625 27.4058 20.9462 24.1765 24.1755L-5.99343 -5.99441ZM-13.8668 15.6052C-14.3754 9.72812 -11.9721 3.94961 -7.4787 0.167641L19.996 32.8109C26.1063 27.6681 29.3315 19.9056 28.641 11.9266L-13.8668 15.6052ZM-7.48353 0.171702C-13.6216 5.34102 -17.1749 12.9539 -17.1749 20.9996H25.4918C25.4918 25.5623 23.4712 29.8843 20.0009 32.8068L-7.48353 0.171702ZM-17.1749 20.9996C-17.1749 29.0452 -13.6216 36.6582 -7.48353 41.8275L20.0009 9.19234C23.4712 12.1149 25.4918 16.4369 25.4918 20.9996H-17.1749ZM-7.47554 41.8342C-11.9694 38.0533 -14.3759 32.2766 -13.8668 26.394L28.641 30.0726C29.332 22.088 26.1003 14.324 19.9929 9.18562L-7.47554 41.8342ZM-13.8693 26.4225C-14.5486 34.3965 -11.6958 42.299 -5.98312 48.0039L24.1661 17.8134C27.4132 21.056 29.0263 25.5496 28.6434 30.0441L-13.8693 26.4225ZM-5.98312 48.0039C-0.234569 53.7446 7.66502 56.5121 15.4921 55.8764L12.0383 13.3497C16.4229 12.9937 20.8833 14.535 24.1661 17.8134L-5.98312 48.0039ZM15.6294 55.8648C15.0032 55.9197 14.4659 55.9346 14.0498 55.9346V13.2679C13.4452 13.2679 12.7192 13.2896 11.901 13.3613L15.6294 55.8648ZM37.1549 41.6391L45.1364 33.9456L15.5258 3.2266L7.54433 10.9201L37.1549 41.6391ZM45.1429 33.9393C54.2764 25.1279 54.5743 10.5402 45.7071 1.37285L15.0393 31.0364C7.46559 23.2063 7.72303 10.7542 15.5193 3.23289L45.1429 33.9393ZM45.7264 1.39284C36.9079 -7.74801 22.3512 -8.01806 13.1992 0.789019L42.7842 31.5327C34.9728 39.0497 22.5484 38.82 15.02 31.0164L45.7264 1.39284ZM13.1856 0.8021L5.18228 8.51747L34.7944 39.235L42.7978 31.5196L13.1856 0.8021ZM4.90341 8.79128C12.9364 0.758242 25.3593 1.49518 32.6118 8.71304L2.51437 38.9552C11.1749 47.5743 25.7232 48.3113 35.0733 38.9612L4.90341 8.79128ZM32.0857 8.20705L28.2491 4.64158L-0.796143 35.8957L3.04049 39.4612L32.0857 8.20705ZM28.2784 4.66893C18.9538 -4.02942 4.37636 -3.46608 -4.26839 5.82072L26.9617 34.8917C19.5869 42.8143 7.145 43.3035 -0.825513 35.8684L28.2784 4.66893ZM-4.26973 5.82215C-12.9408 15.139 -12.4006 29.7176 -3.08056 38.3703L25.9491 7.10171C33.9049 14.4879 34.3676 26.9343 26.9631 34.8903L-4.26973 5.82215ZM-3.08524 38.366L0.707605 41.8893L29.7466 10.6294L25.9537 7.10605L-3.08524 38.366ZM0.142147 41.3443C5.30813 46.5103 12.1118 49.0731 18.8077 49.0731V6.40647C22.9133 6.40647 27.12 7.98235 30.312 11.1744L0.142147 41.3443ZM18.8077 49.0731C25.4659 49.0731 32.2549 46.5386 37.4232 41.3793L7.27942 11.1833C10.5007 7.96753 14.7263 6.40647 18.8077 6.40647V49.0731ZM37.4291 11.1891L37.4274 11.1875L7.27187 41.3717L7.27355 41.3734L37.4291 11.1891Z" fill="white" mask="url(#path-1-inside-1_3977_1669)"/>
</svg>
