<svg width="32" height="32" viewBox="0 0 32 32" fill="none" xmlns="http://www.w3.org/2000/svg">
<path d="M31.5244 22.9132C31.4821 22.8604 30.719 21.9233 29.4842 21.2839C30.8498 19.3326 30.9958 17.0353 31.002 16.9236L31.061 15.8759L30.0133 15.9349C29.9122 15.9406 28.0198 16.0607 26.2144 17.0967C26.0029 14.7621 24.8906 13.1177 24.3745 12.4686V4.75019C24.3745 3.19941 23.1128 1.93774 21.5621 1.93774H2.81245C1.26167 1.93774 0 3.19941 0 4.75019V18.8124H16.23C16.4521 19.5679 16.8095 20.4519 17.3841 21.2756C16.1242 21.9031 15.287 22.8209 15.2405 22.8726L14.6772 23.4981L15.2387 24.1252C15.3092 24.204 16.7994 25.8436 18.838 26.2308C18.7162 26.8246 18.687 27.2257 18.6853 27.2517L18.6117 28.3159L19.6766 28.2521C19.7481 28.2478 21.0401 28.162 22.4995 27.5584V30.0622H24.3745V27.5584C25.834 28.162 27.126 28.2478 27.1975 28.2521L28.2622 28.3159L28.1888 27.2518C28.187 27.2258 28.1579 26.8242 28.0361 26.2301C30.068 25.8383 31.4531 24.1736 31.5185 24.0937L31.9999 23.5057L31.5244 22.9132ZM1.87497 4.75019C1.87497 4.23327 2.29552 3.81271 2.81245 3.81271H21.5621C22.079 3.81271 22.4996 4.23327 22.4996 4.75019V5.84893C22.2062 5.74486 21.8908 5.68768 21.5621 5.68768H14.0623C12.5115 5.68768 11.2498 6.94934 11.2498 8.50013C11.2498 9.01706 10.8292 9.43761 10.3123 9.43761C9.79539 9.43761 9.37484 9.01706 9.37484 8.50013C9.37484 6.94934 8.11317 5.68768 6.56238 5.68768C5.0116 5.68768 3.74993 6.94934 3.74993 8.50013V10.3751C3.74993 10.892 3.32938 11.3126 2.81245 11.3126C2.29552 11.3126 1.87497 10.892 1.87497 10.3751V8.50013V4.75019ZM1.87497 16.9375V13.0263C2.1684 13.1304 2.48377 13.1875 2.81245 13.1875C4.36324 13.1875 5.6249 11.9259 5.6249 10.3751V8.50013C5.6249 7.9832 6.04546 7.56265 6.56238 7.56265C7.07931 7.56265 7.49987 7.9832 7.49987 8.50013C7.49987 10.0509 8.76153 11.3126 10.3123 11.3126C11.8631 11.3126 13.1248 10.0509 13.1248 8.50013C13.1248 7.9832 13.5453 7.56265 14.0623 7.56265H21.5621C22.079 7.56265 22.4996 7.9832 22.4996 8.50013V12.4686C21.9835 13.1177 20.8712 14.7621 20.6598 17.0967C18.8544 16.0607 16.9619 15.9406 16.8608 15.9349L15.8132 15.8759L15.8721 16.9236C15.8723 16.9265 15.8726 16.9317 15.873 16.9375H1.87497V16.9375ZM27.0845 24.4246C26.8958 24.3975 26.9962 24.4133 25.4823 24.255C25.8935 25.5095 25.9781 25.7094 26.0955 26.1603C25.4629 25.9948 24.6752 25.71 23.9663 25.2251L23.4371 24.8633L22.9079 25.2251C22.1964 25.7117 21.4097 25.9965 20.7784 26.1616C20.8971 25.7051 20.9844 25.4985 21.3919 24.255C19.8522 24.416 19.9766 24.3978 19.7899 24.4246C19.0376 24.532 18.0257 24.0231 17.3422 23.5023C17.8056 23.1516 18.457 22.7573 19.1766 22.6189L20.9631 22.2754C18.942 20.3505 19.5887 20.9772 19.4597 20.8482C18.6065 19.9951 18.1729 18.8625 17.9555 18.0152C18.7995 18.231 19.9268 18.6638 20.7854 19.5224C20.9821 19.7191 20.0767 18.7887 22.7158 21.5385C22.5604 19.1629 22.4996 18.7533 22.4996 17.8749C22.4996 16.3879 22.9976 15.1911 23.4405 14.4208C23.8816 15.1858 24.3746 16.3761 24.3746 17.8749C24.3746 18.7528 24.314 19.1599 24.1584 21.5385C26.7993 18.7868 25.8927 19.7184 26.0887 19.5224C26.9418 18.6693 28.0744 18.2357 28.9217 18.0182C28.7059 18.8622 28.2732 19.9895 27.4146 20.848C27.2855 20.9773 27.9308 20.3519 25.9111 22.2754L27.6976 22.6189C28.415 22.7568 29.0282 23.1513 29.4507 23.497C28.7952 24.0337 27.8231 24.5304 27.0845 24.4246V24.4246Z" fill="#DAA930"/>
<path d="M18.75 9.4375H20.625V11.3125H18.75V9.4375Z" fill="white"/>
<path d="M15 11.3125H16.875V13.1875H15V11.3125Z" fill="white"/>
</svg>
