<svg width="42" height="42" viewBox="0 0 42 42" fill="none" xmlns="http://www.w3.org/2000/svg">
<g clip-path="url(#clip0_2139_13365)">
<path d="M10.7637 29.0909V28.644L10.3196 28.594C5.25098 28.0238 1.29004 23.7626 1.29004 18.5527C1.29004 12.9517 5.847 8.39478 11.4479 8.39478C17.2928 8.39478 21.6058 13.3161 21.6058 18.5527C21.6058 20.2075 21.176 21.756 20.457 23.1435C20.0592 22.8968 19.6971 22.6002 19.376 22.2607C19.9096 21.1381 20.2374 19.8909 20.2374 18.5527C20.2374 14.034 16.4652 9.7632 11.4479 9.7632C6.60145 9.7632 2.65846 13.7062 2.65846 18.5527C2.65846 23.3992 6.60145 27.3421 11.4479 27.3421C11.9499 27.3421 12.4421 27.2996 12.9216 27.2181C13.2501 27.6115 13.5998 27.9873 13.9705 28.3424C13.5173 28.455 13.0487 28.5381 12.5685 28.5997L12.1321 28.6557V29.0956V34.0264V34.5264H12.6321H16.1848C16.5632 34.5264 16.869 34.8322 16.869 35.2106C16.869 35.589 16.5632 35.8948 16.1848 35.8948H12.6321H12.1321V36.3948V40.0264C12.1321 40.4048 11.8263 40.7106 11.4479 40.7106C11.0695 40.7106 10.7637 40.4048 10.7637 40.0264V36.3948V35.8948H10.2637H6.71109C6.33268 35.8948 6.02688 35.589 6.02688 35.2106C6.02688 34.8322 6.33268 34.5264 6.71109 34.5264H10.2637H10.7637V34.0264V29.0909Z" fill="white" stroke="white"/>
<path d="M20.7563 8.75265C21.572 8.52822 22.4156 8.39481 23.2897 8.39481C25.677 8.39481 27.8493 9.25838 29.5929 10.6531L29.9385 10.9296L30.2549 10.6201L37.5175 3.51539L38.3939 2.65797H37.1678H32.9213C32.5429 2.65797 32.2371 2.35217 32.2371 1.97376C32.2371 1.59535 32.5429 1.28955 32.9213 1.28955H39.5266H40.0266C40.4021 1.28955 40.7108 1.60055 40.7108 1.97376V9.07903C40.7108 9.45744 40.405 9.76324 40.0266 9.76324C39.6482 9.76324 39.3424 9.45744 39.3424 9.07903V4.83252V3.64393L38.4927 4.47511L31.2301 11.5798L30.9067 11.8962L31.1893 12.2496C32.5841 13.9932 33.4476 16.1655 33.4476 18.5527C33.4476 24.1536 28.8907 28.7106 23.2897 28.7106C17.5609 28.7106 13.1318 23.8374 13.1318 18.5527C13.1318 16.8979 13.5617 15.3494 14.2807 13.9618C14.6785 14.2086 15.0406 14.5052 15.3617 14.8447C14.8281 15.9673 14.5003 17.2144 14.5003 18.5527C14.5003 23.1186 18.3073 27.3422 23.2897 27.3422C28.1362 27.3422 32.0792 23.3992 32.0792 18.5527C32.0792 13.7062 28.1362 9.76324 23.2897 9.76324C22.7878 9.76324 22.2955 9.80583 21.8161 9.88726C21.4844 9.49004 21.1311 9.11073 20.7563 8.75265Z" fill="white" stroke="white"/>
</g>
<defs>
<clipPath id="clip0_2139_13365">
<rect width="40.4211" height="40.4211" fill="white" transform="translate(0.790039 0.789551)"/>
</clipPath>
</defs>
</svg>
