<svg width="18" height="18" viewBox="0 0 18 18" fill="none" xmlns="http://www.w3.org/2000/svg">
<mask id="path-1-inside-1_4020_12767" fill="white">
<path d="M13.8611 0.666992H4.13889C3.21833 0.668095 2.3358 1.03427 1.68487 1.6852C1.03394 2.33613 0.667767 3.21866 0.666664 4.13921L0.666664 13.8614C0.667767 14.782 1.03394 15.6645 1.68487 16.3155C2.3358 16.9664 3.21833 17.3326 4.13889 17.3337H13.8611C14.7817 17.3326 15.6642 16.9664 16.3151 16.3155C16.9661 15.6645 17.3322 14.782 17.3333 13.8614V4.13921C17.3322 3.21866 16.9661 2.33613 16.3151 1.6852C15.6642 1.03427 14.7817 0.668095 13.8611 0.666992V0.666992ZM4.13889 2.05588H13.8611C14.4136 2.05588 14.9435 2.27537 15.3342 2.66608C15.7249 3.05678 15.9444 3.58668 15.9444 4.13921V13.8614C15.9432 14.1708 15.872 14.4759 15.7361 14.7538L9.37291 8.3906C9.05048 8.06808 8.66766 7.81224 8.24633 7.63768C7.825 7.46313 7.37341 7.37329 6.91736 7.37329C6.4613 7.37329 6.00971 7.46313 5.58839 7.63768C5.16706 7.81224 4.78424 8.06808 4.4618 8.3906L2.05555 10.7962V4.13921C2.05555 3.58668 2.27505 3.05678 2.66575 2.66608C3.05645 2.27537 3.58635 2.05588 4.13889 2.05588V2.05588ZM4.13889 15.9448C3.58635 15.9448 3.05645 15.7253 2.66575 15.3346C2.27505 14.9439 2.05555 14.414 2.05555 13.8614V12.76L5.44305 9.37255C5.63653 9.17895 5.86625 9.02537 6.1191 8.92059C6.37195 8.81581 6.64296 8.76188 6.91666 8.76188C7.19036 8.76188 7.46138 8.81581 7.71423 8.92059C7.96708 9.02537 8.1968 9.17895 8.39028 9.37255L14.7535 15.7364C14.4756 15.8723 14.1705 15.9436 13.8611 15.9448H4.13889Z"/>
</mask>
<path d="M13.8611 0.666992H4.13889C3.21833 0.668095 2.3358 1.03427 1.68487 1.6852C1.03394 2.33613 0.667767 3.21866 0.666664 4.13921L0.666664 13.8614C0.667767 14.782 1.03394 15.6645 1.68487 16.3155C2.3358 16.9664 3.21833 17.3326 4.13889 17.3337H13.8611C14.7817 17.3326 15.6642 16.9664 16.3151 16.3155C16.9661 15.6645 17.3322 14.782 17.3333 13.8614V4.13921C17.3322 3.21866 16.9661 2.33613 16.3151 1.6852C15.6642 1.03427 14.7817 0.668095 13.8611 0.666992V0.666992ZM4.13889 2.05588H13.8611C14.4136 2.05588 14.9435 2.27537 15.3342 2.66608C15.7249 3.05678 15.9444 3.58668 15.9444 4.13921V13.8614C15.9432 14.1708 15.872 14.4759 15.7361 14.7538L9.37291 8.3906C9.05048 8.06808 8.66766 7.81224 8.24633 7.63768C7.825 7.46313 7.37341 7.37329 6.91736 7.37329C6.4613 7.37329 6.00971 7.46313 5.58839 7.63768C5.16706 7.81224 4.78424 8.06808 4.4618 8.3906L2.05555 10.7962V4.13921C2.05555 3.58668 2.27505 3.05678 2.66575 2.66608C3.05645 2.27537 3.58635 2.05588 4.13889 2.05588V2.05588ZM4.13889 15.9448C3.58635 15.9448 3.05645 15.7253 2.66575 15.3346C2.27505 14.9439 2.05555 14.414 2.05555 13.8614V12.76L5.44305 9.37255C5.63653 9.17895 5.86625 9.02537 6.1191 8.92059C6.37195 8.81581 6.64296 8.76188 6.91666 8.76188C7.19036 8.76188 7.46138 8.81581 7.71423 8.92059C7.96708 9.02537 8.1968 9.17895 8.39028 9.37255L14.7535 15.7364C14.4756 15.8723 14.1705 15.9436 13.8611 15.9448H4.13889Z" fill="white"/>
<path d="M13.8611 0.666992V22.0003H35.1944V0.666992H13.8611ZM4.13889 0.666992V-20.6663H4.12611L4.11333 -20.6663L4.13889 0.666992ZM0.666664 4.13921L-20.6667 4.11366L-20.6667 4.12644V4.13921L0.666664 4.13921ZM0.666664 13.8614L-20.6667 13.8614V13.8742L-20.6667 13.887L0.666664 13.8614ZM4.13889 17.3337L4.11333 38.667L4.12611 38.667H4.13889V17.3337ZM13.8611 17.3337V38.667H13.8739L13.8867 38.667L13.8611 17.3337ZM17.3333 13.8614L38.6667 13.887L38.6667 13.8742V13.8614H17.3333ZM17.3333 4.13921H38.6667V4.12644L38.6667 4.11366L17.3333 4.13921ZM13.8611 0.666992L13.8867 -20.6663L-7.47222 -20.6919L-7.47222 0.666992H13.8611ZM15.9444 4.13921L37.2778 4.13921L15.9444 4.13921ZM15.9444 13.8614L37.2776 13.944L37.2778 13.9027V13.8614H15.9444ZM15.7361 14.7538L0.651165 29.8387L21.7759 50.9635L34.9005 24.1259L15.7361 14.7538ZM9.37291 8.3906L-5.71402 23.4736L-5.71203 23.4755L9.37291 8.3906ZM4.4618 8.3906L19.5446 23.4777L19.5487 23.4736L4.4618 8.3906ZM2.05555 10.7962H-19.2778V62.2889L17.1383 25.8833L2.05555 10.7962ZM2.05555 4.13921H-19.2778H2.05555ZM4.13889 2.05588L4.13889 -19.2775L4.13889 2.05588ZM4.13889 15.9448V37.2781V15.9448ZM2.05555 13.8614L-19.2778 13.8614L2.05555 13.8614ZM2.05555 12.76L-13.0294 -2.3249L-19.2778 3.92349V12.76H2.05555ZM5.44305 9.37255L20.528 24.4575L20.5328 24.4527L5.44305 9.37255ZM8.39028 9.37255L-6.6995 24.4527L-6.69549 24.4567L8.39028 9.37255ZM14.7535 15.7364L24.1256 34.9009L50.9616 21.777L29.8392 0.652316L14.7535 15.7364ZM13.8611 15.9448V37.2781H13.9024L13.9437 37.2779L13.8611 15.9448ZM13.8611 -20.6663H4.13889V22.0003H13.8611V-20.6663ZM4.11333 -20.6663C-2.45631 -20.6585 -8.75463 -18.0452 -13.4001 -13.3997L16.7698 16.7701C13.4262 20.1137 8.89298 21.9946 4.16444 22.0003L4.11333 -20.6663ZM-13.4001 -13.3997C-18.0455 -8.7543 -20.6588 -2.45599 -20.6667 4.11366L22 4.16477C21.9943 8.89331 20.1134 13.4266 16.7698 16.7701L-13.4001 -13.3997ZM-20.6667 4.13921V13.8614L22 13.8614V4.13921L-20.6667 4.13921ZM-20.6667 13.887C-20.6588 20.4566 -18.0455 26.755 -13.4001 31.4004L16.7698 1.23051C20.1134 4.5741 21.9943 9.10735 22 13.8359L-20.6667 13.887ZM-13.4001 31.4004C-8.75462 36.0458 -2.4563 38.6591 4.11333 38.667L4.16444 -3.99966C8.89297 -3.99399 13.4262 -2.11309 16.7698 1.23051L-13.4001 31.4004ZM4.13889 38.667H13.8611V-3.99967H4.13889V38.667ZM13.8867 38.667C20.4563 38.6591 26.7546 36.0459 31.4001 31.4004L1.23018 1.23051C4.57377 -2.11309 9.10703 -3.99399 13.8356 -3.99966L13.8867 38.667ZM31.4001 31.4004C36.0455 26.7549 38.6588 20.4566 38.6667 13.887L-3.99999 13.8359C-3.99432 9.10736 -2.11342 4.5741 1.23018 1.23051L31.4001 31.4004ZM38.6667 13.8614V4.13921H-4V13.8614H38.6667ZM38.6667 4.11366C38.6588 -2.45598 36.0455 -8.75429 31.4001 -13.3997L1.23018 16.7701C-2.11341 13.4266 -3.99432 8.8933 -3.99999 4.16477L38.6667 4.11366ZM31.4001 -13.3997C26.7546 -18.0452 20.4563 -20.6585 13.8867 -20.6663L13.8356 22.0003C9.10702 21.9946 4.57377 20.1137 1.23018 16.7701L31.4001 -13.3997ZM-7.47222 0.666992V0.666992H35.1944V0.666992H-7.47222ZM4.13889 23.3892H13.8611V-19.2775H4.13889V23.3892ZM13.8611 23.3892C8.75569 23.3892 3.85938 21.3611 0.249304 17.751L30.4192 -12.4189C26.0277 -16.8103 20.0716 -19.2775 13.8611 -19.2775L13.8611 23.3892ZM0.249304 17.751C-3.36078 14.1409 -5.38889 9.24463 -5.38889 4.13921L37.2778 4.13921C37.2778 -2.07127 34.8107 -8.02739 30.4192 -12.4189L0.249304 17.751ZM-5.38889 4.13921V13.8614H37.2778V4.13921H-5.38889ZM-5.38873 13.7788C-5.37746 10.8677 -4.70724 7.99691 -3.42831 5.3817L34.9005 24.1259C36.4513 20.9549 37.264 17.4739 37.2776 13.944L-5.38873 13.7788ZM30.8211 -0.331148L24.4579 -6.69434L-5.71203 23.4755L0.651165 29.8387L30.8211 -0.331148ZM24.4598 -6.69235C22.1564 -8.99645 19.4215 -10.8242 16.4115 -12.0712L0.0811196 27.3466C-2.0862 26.4487 -4.0554 25.1326 -5.71402 23.4736L24.4598 -6.69235ZM16.4115 -12.0712C13.4016 -13.3182 10.1754 -13.96 6.91736 -13.96V28.7066C4.5714 28.7066 2.24843 28.2445 0.0811196 27.3466L16.4115 -12.0712ZM6.91736 -13.96C3.65929 -13.96 0.433144 -13.3182 -2.57683 -12.0712L13.7536 27.3466C11.5863 28.2445 9.26331 28.7066 6.91736 28.7066V-13.96ZM-2.57683 -12.0712C-5.5868 -10.8242 -8.32164 -8.99645 -10.6251 -6.69235L19.5487 23.4736C17.8901 25.1326 15.9209 26.4487 13.7536 27.3466L-2.57683 -12.0712ZM-10.621 -6.69652L-13.0272 -4.29096L17.1383 25.8833L19.5446 23.4777L-10.621 -6.69652ZM23.3889 10.7962V4.13921H-19.2778V10.7962H23.3889ZM23.3889 4.13921C23.3889 9.24463 21.3608 14.1409 17.7507 17.751L-12.4192 -12.4189C-16.8107 -8.02739 -19.2778 -2.07127 -19.2778 4.13921L23.3889 4.13921ZM17.7507 17.751C14.1406 21.3611 9.24431 23.3892 4.13889 23.3892L4.13889 -19.2775C-2.0716 -19.2775 -8.02772 -16.8103 -12.4192 -12.4189L17.7507 17.751ZM4.13889 -5.38856C9.2443 -5.38856 14.1406 -3.36045 17.7507 0.249632L-12.4192 30.4195C-8.02772 34.811 -2.07159 37.2781 4.13889 37.2781L4.13889 -5.38856ZM17.7507 0.249632C21.3608 3.85971 23.3889 8.75602 23.3889 13.8614L-19.2778 13.8614C-19.2778 20.0719 -16.8107 26.028 -12.4192 30.4195L17.7507 0.249632ZM23.3889 13.8614V12.76H-19.2778V13.8614H23.3889ZM17.1405 27.845L20.528 24.4575L-9.64189 -5.7124L-13.0294 -2.3249L17.1405 27.845ZM20.5328 24.4527C18.7451 26.2415 16.6225 27.6605 14.2862 28.6287L-2.04797 -10.7875C-4.88998 -9.6098 -7.47208 -7.8836 -9.64673 -5.70756L20.5328 24.4527ZM14.2862 28.6287C11.9499 29.5969 9.44568 30.0952 6.91666 30.0952V-12.5715C3.84025 -12.5715 0.79402 -11.9653 -2.04797 -10.7875L14.2862 28.6287ZM6.91666 30.0952C4.38766 30.0952 1.88346 29.5969 -0.452841 28.6287L15.8813 -10.7875C13.0393 -11.9653 9.99307 -12.5715 6.91666 -12.5715V30.0952ZM-0.452841 28.6287C-2.78917 27.6605 -4.91182 26.2415 -6.6995 24.4527L23.4801 -5.70756C21.3054 -7.88358 18.7233 -9.60979 15.8813 -10.7875L-0.452841 28.6287ZM-6.69549 24.4567L-0.332298 30.8206L29.8392 0.652316L23.476 -5.71157L-6.69549 24.4567ZM5.38137 -3.42798C7.99658 -4.70691 10.8674 -5.37713 13.7785 -5.3884L13.9437 37.2779C17.4736 37.2643 20.9545 36.4516 24.1256 34.9009L5.38137 -3.42798ZM13.8611 -5.38856H4.13889V37.2781H13.8611V-5.38856Z" fill="#32B66C" mask="url(#path-1-inside-1_4020_12767)"/>
<path d="M11.7778 7.95877C12.2585 7.95877 12.7284 7.81622 13.1281 7.54915C13.5278 7.28207 13.8394 6.90247 14.0233 6.45835C14.2073 6.01422 14.2554 5.52552 14.1616 5.05404C14.0678 4.58255 13.8364 4.14947 13.4964 3.80955C13.1565 3.46963 12.7234 3.23814 12.252 3.14436C11.7805 3.05058 11.2918 3.09871 10.8476 3.28267C10.4035 3.46664 10.0239 3.77817 9.75684 4.17787C9.48977 4.57757 9.34722 5.04749 9.34722 5.52821C9.34722 6.17284 9.6033 6.79106 10.0591 7.24688C10.5149 7.70269 11.1332 7.95877 11.7778 7.95877V7.95877ZM11.7778 4.48655C11.9838 4.48655 12.1852 4.54764 12.3565 4.6621C12.5278 4.77656 12.6613 4.93924 12.7402 5.12958C12.819 5.31992 12.8396 5.52937 12.7994 5.73143C12.7592 5.9335 12.66 6.1191 12.5143 6.26478C12.3687 6.41046 12.1831 6.50967 11.981 6.54986C11.7789 6.59006 11.5695 6.56943 11.3791 6.49059C11.1888 6.41175 11.0261 6.27823 10.9117 6.10693C10.7972 5.93563 10.7361 5.73424 10.7361 5.52821C10.7361 5.25195 10.8459 4.98699 11.0412 4.79164C11.2366 4.59629 11.5015 4.48655 11.7778 4.48655V4.48655Z" fill="#32B66C"/>
</svg>
