<svg width="20" height="22" viewBox="0 0 20 22" fill="none" xmlns="http://www.w3.org/2000/svg">
<path d="M14.7419 14.904L15.6007 14.2051C15.8482 14.0037 16.0894 13.7878 16.321 13.5562L16.321 13.5562C18.8545 11.0228 19.4751 7.39362 19.4986 7.24928L14.7419 14.904ZM14.7419 14.904L15.8342 15.0861M14.7419 14.904L15.8342 15.0861M15.8342 15.0861C17.8571 15.4232 19.4032 16.5316 19.4635 16.5754M15.8342 15.0861L19.4635 16.5754M19.4635 16.5754C19.5116 16.6105 19.5116 16.683 19.4636 16.7181L19.4635 16.5754ZM12.1676 11.2437L12.2566 9.92024C12.2744 9.65541 12.2842 9.38769 12.2842 9.11741C12.2842 5.06597 10.1577 1.63392 10.0746 1.50195L10.0746 1.50189C10.0402 1.4473 9.95958 1.4473 9.92523 1.50189L9.92519 1.50195C9.84213 1.63392 7.71562 5.06597 7.71562 9.11741C7.71562 9.38765 7.72539 9.65541 7.7432 9.92024L7.83224 11.2437L6.89173 10.3083C4.35845 7.78883 0.744651 7.17117 0.602399 7.14801L0.602395 7.14801C0.543281 7.13838 0.49158 7.19013 0.501154 7.2492L12.1676 11.2437ZM12.1676 11.2437L13.1081 10.3083M12.1676 11.2437L13.1081 10.3083M13.1081 10.3083C15.6407 7.78944 19.2534 7.17146 19.3973 7.14803L13.1081 10.3083ZM5.25793 14.904L4.16565 15.0861C2.14273 15.4232 0.596578 16.5316 0.536401 16.5754L0.536357 16.5754C0.488285 16.6104 0.488074 16.683 0.536377 16.7181C0.618899 16.7781 2.75504 18.3036 5.29411 18.3036C6.86621 18.3036 8.29102 17.7177 9.17735 17.2474L9.91172 16.8578V17.6891V20.4506C9.91172 20.4993 9.95123 20.5389 9.99994 20.5389C10.0487 20.5389 10.0882 20.4993 10.0882 20.4506V17.6891V16.8578L10.8225 17.2474C11.7089 17.7177 13.1337 18.3036 14.7058 18.3036C17.2443 18.3036 19.3801 16.7787 19.4634 16.7181L5.25793 14.904ZM5.25793 14.904L4.39906 14.2051C4.15163 14.0037 3.91037 13.7878 3.67878 13.5562L3.3589 13.8761M5.25793 14.904L3.3589 13.8761M3.3589 13.8761L3.67878 13.5562M3.3589 13.8761L3.67878 13.5562M3.67878 13.5562C1.14513 11.0226 0.52461 7.39316 0.501164 7.24927L3.67878 13.5562ZM19.1045 8.15774L19.3415 7.30503L18.4888 7.54208C17.2528 7.88569 14.9545 8.71109 13.2152 10.4503L13.5479 10.7831L13.2152 10.4503C12.7721 10.8934 12.3614 11.4014 11.9908 11.9593L11.941 12.0342L11.9205 12.1216C11.5912 13.5237 11.0988 14.7151 10.703 15.5333L10.2028 16.5673L11.3004 16.2288C12.5829 15.8334 14.6187 15.009 16.1963 13.4314C17.9354 11.6923 18.7608 9.39407 19.1045 8.15774ZM10.449 2.5619L10.0001 1.65177L9.55194 2.56221C8.91559 3.85482 7.89203 6.35686 7.89203 9.11741C7.89203 11.8778 8.91572 14.3619 9.55205 15.6431L9.99985 16.5446L10.4477 15.6431C11.0839 14.3622 12.1077 11.878 12.1077 9.11741C12.1077 6.35019 11.0855 3.8527 10.449 2.5619ZM6.78461 10.4504L6.7846 10.4503C5.04545 8.71121 2.74722 7.88581 1.51089 7.54212L1.37697 8.02386L0.89523 8.15778C1.23884 9.39383 2.0642 11.6921 3.80345 13.4315L3.80347 13.4315C5.38097 15.009 7.41669 15.8334 8.69929 16.2288L9.79688 16.5673L9.29673 15.5333C8.90096 14.7151 8.40858 13.5237 8.07928 12.1216L8.05873 12.0342L8.00899 11.9593C7.63839 11.4014 7.22759 10.8934 6.78461 10.4504ZM5.93131 15.2445L5.83232 15.1885L5.71885 15.1808C4.227 15.0801 2.74525 15.5424 1.49369 16.2048L0.658669 16.6468L1.49372 17.0887C2.327 17.5297 3.73694 18.1271 5.29403 18.1271C6.60257 18.1271 7.80471 17.7053 8.64495 17.3124L9.81359 16.7659L8.58187 16.3821C7.84295 16.1519 6.89679 15.7905 5.93131 15.2445ZM11.4178 16.3821L10.1861 16.7659L11.3547 17.3124C12.1949 17.7053 13.3971 18.1271 14.7057 18.1271C16.2628 18.1271 17.6726 17.5298 18.5061 17.0886L19.341 16.6466L18.506 16.2047C17.2545 15.5424 15.7727 15.08 14.2809 15.1808L14.1674 15.1885L14.0684 15.2444C13.1029 15.7905 12.1567 16.1518 11.4178 16.3821ZM19.3974 7.14801C19.4566 7.13846 19.5082 7.19006 19.4987 7.24918L19.3974 7.14801Z" stroke="white" stroke-width="1.00002"/>
</svg>
