<svg width="42" height="42" viewBox="0 0 42 42" fill="none" xmlns="http://www.w3.org/2000/svg">
<path d="M24.3685 4.1582H10.8948C10.0014 4.1582 9.14466 4.51309 8.51295 5.14479C7.88125 5.77649 7.52637 6.63326 7.52637 7.52662V34.474C7.52637 35.3674 7.88125 36.2241 8.51295 36.8558C9.14466 37.4875 10.0014 37.8424 10.8948 37.8424H31.1053C31.9987 37.8424 32.8554 37.4875 33.4871 36.8558C34.1188 36.2241 34.4737 35.3674 34.4737 34.474V14.2635L24.3685 4.1582Z" stroke="white" stroke-width="3" stroke-linecap="round" stroke-linejoin="round"/>
<path d="M24.3685 4.1582V14.2635H34.4738" stroke="white" stroke-width="3" stroke-linecap="round" stroke-linejoin="round"/>
<path d="M27.7369 22.6836H14.2632" stroke="white" stroke-width="3" stroke-linecap="round" stroke-linejoin="round"/>
<path d="M27.7369 29.4199H14.2632" stroke="white" stroke-width="3" stroke-linecap="round" stroke-linejoin="round"/>
<path d="M17.6316 15.9473H15.9474H14.2632" stroke="white" stroke-width="3" stroke-linecap="round" stroke-linejoin="round"/>
</svg>
