<svg width="18" height="22" viewBox="0 0 18 22" fill="none" xmlns="http://www.w3.org/2000/svg">
<path d="M16.2659 5.74707C16.2659 5.86002 16.2659 5.97298 16.1529 6.08593C15.2493 10.6041 12.3125 12.0725 8.47209 12.0725H6.55187C6.10006 12.0725 5.64826 12.4113 5.64826 12.8631L4.63167 19.1885L4.40576 20.9958C4.40576 21.3346 4.63166 21.5605 4.85757 21.5605H8.35913C8.81094 21.5605 9.1498 21.2217 9.1498 20.8828V20.6569L9.82753 16.5906V16.3647C9.94048 15.9129 10.2793 15.687 10.6182 15.687H11.183C14.5716 15.687 17.1695 14.3315 17.8472 10.3782C18.1861 8.68386 17.9602 7.32842 17.1695 6.42479C16.9436 6.19889 16.6047 5.97298 16.2659 5.74707Z" fill="#2199D6"/>
<path d="M15.3619 5.4082C15.249 5.4082 15.136 5.29524 14.9101 5.29524C14.7972 5.29524 14.5713 5.18229 14.4583 5.18229C13.8935 5.06933 13.3288 5.06934 12.764 5.06934H7.56815C7.4552 5.06934 7.34224 5.06933 7.22929 5.18229C7.00338 5.29524 6.77748 5.52115 6.77748 5.74705L5.64795 12.7502V12.9761C5.7609 12.5243 6.09975 12.1854 6.55156 12.1854H8.47178C12.3122 12.1854 15.249 10.6041 16.1526 6.19887C16.1526 6.08592 16.1526 5.97296 16.2656 5.86001C16.0397 5.74706 15.8137 5.6341 15.5878 5.52115C15.4749 5.4082 15.3619 5.4082 15.3619 5.4082Z" fill="#252C5E"/>
<path d="M6.77769 5.74728C6.77769 5.52138 7.00359 5.29547 7.2295 5.18252C7.34245 5.18252 7.45541 5.06956 7.56836 5.06956H12.7642C13.329 5.06956 14.0067 5.06956 14.4585 5.18252C14.5715 5.18252 14.7974 5.18252 14.9103 5.29547C15.0233 5.29547 15.1362 5.40842 15.3621 5.40842C15.4751 5.40842 15.4751 5.40843 15.588 5.52138C15.8139 5.63433 16.0399 5.74728 16.2658 5.86024C16.4917 4.16594 16.2658 3.0364 15.3621 2.01982C14.3456 0.890288 12.5383 0.438477 10.2792 0.438477H3.61499C3.16318 0.438477 2.71136 0.777333 2.71136 1.22915L0.000488281 18.624C0.000488281 18.9628 0.226395 19.3017 0.565255 19.3017H4.63157L5.64816 12.7504L6.77769 5.74728Z" fill="#263577"/>
</svg>
