<svg width="24" height="24" viewBox="0 0 24 24" fill="none" xmlns="http://www.w3.org/2000/svg">
<g clip-path="url(#clip0_0_216)">
<path d="M23.707 22.2938L17.738 16.3248C19.3647 14.3354 20.1644 11.7969 19.9719 9.23433C19.7793 6.67179 18.6093 4.28129 16.7036 2.55728C14.798 0.83327 12.3026 -0.0923493 9.73367 -0.0281174C7.16472 0.0361144 4.71873 1.08528 2.90164 2.90237C1.08455 4.71946 0.035382 7.16545 -0.0288498 9.73441C-0.0930817 12.3034 0.832537 14.7987 2.55655 16.7044C4.28056 18.61 6.67106 19.7801 9.23359 19.9726C11.7961 20.1651 14.3346 19.3654 16.324 17.7388L22.293 23.7078C22.4816 23.8899 22.7342 23.9907 22.9964 23.9884C23.2586 23.9862 23.5095 23.881 23.6949 23.6956C23.8803 23.5102 23.9854 23.2594 23.9877 22.9972C23.99 22.735 23.8892 22.4824 23.707 22.2938ZM10 18.0008C8.41778 18.0008 6.87106 17.5316 5.55547 16.6525C4.23987 15.7735 3.21449 14.524 2.60899 13.0622C2.00349 11.6004 1.84506 9.99189 2.15374 8.44004C2.46243 6.88819 3.22435 5.46273 4.34317 4.34391C5.462 3.22509 6.88746 2.46316 8.43931 2.15448C9.99116 1.8458 11.5997 2.00422 13.0615 2.60972C14.5233 3.21522 15.7727 4.24061 16.6518 5.5562C17.5308 6.87179 18 8.41851 18 10.0008C17.9977 12.1218 17.154 14.1552 15.6543 15.655C14.1545 17.1548 12.121 17.9984 10 18.0008Z" fill="white"/>
<path d="M7.71362 12.8214C7.65108 13.1406 7.63609 13.3562 7.63519 13.3702L7.5974 13.9423L8.14445 13.908C8.18118 13.9057 8.84488 13.8596 9.59461 13.5351V14.8809H10.5578V13.535C11.3075 13.8595 11.9712 13.9056 12.008 13.9079L12.5549 13.9422L12.5172 13.3702C12.5163 13.3563 12.5013 13.1406 12.4388 12.8214C13.486 12.6132 14.2515 11.732 14.2877 11.6897L14.5762 11.3526L14.2868 11.0164C14.2629 10.9886 13.8329 10.4953 13.1856 10.158C13.8844 9.11011 13.9592 7.87867 13.9624 7.81878L13.9927 7.25565L13.4545 7.28736C13.4025 7.29042 12.4303 7.35502 11.5029 7.91183C11.3638 6.30432 10.4652 5.30548 10.4238 5.26036L10.0762 4.88086L9.72853 5.2603C9.68721 5.30541 8.78863 6.30428 8.64945 7.9118C7.722 7.35492 6.74984 7.29035 6.69789 7.28729L6.1597 7.25558L6.19001 7.81871C6.19322 7.87864 6.26799 9.11004 6.96671 10.158C6.31949 10.4952 5.88943 10.9886 5.86554 11.0163L5.57617 11.3526L5.86464 11.6896C5.90089 11.732 6.66636 12.6133 7.71362 12.8214ZM7.88754 10.88L8.805 10.6954C7.76043 9.65409 8.10262 10.0011 8.03298 9.92828C7.59547 9.47046 7.37272 8.86289 7.2608 8.40774C7.696 8.52488 8.27657 8.75791 8.71405 9.21566C8.81515 9.32144 8.34839 8.81962 9.70567 10.2993C9.62573 9.02098 9.59461 8.80128 9.59461 8.3301C9.59461 7.53293 9.84912 6.89086 10.0762 6.47675C10.3034 6.89116 10.5578 7.53306 10.5578 8.3301C10.5578 8.80098 10.5266 9.02189 10.4467 10.2993C11.7991 8.82493 11.3402 9.31829 11.4383 9.21566C11.8759 8.75788 12.4565 8.52481 12.8915 8.4077C12.7092 9.14911 12.3803 9.68509 12.0796 9.96657C12.0102 10.0315 12.0653 9.97971 11.3473 10.6954L12.2648 10.88C12.6353 10.9546 12.9696 11.1661 13.2073 11.3546C12.8561 11.6348 12.3307 11.9076 11.9498 11.8506C11.8523 11.8359 11.8968 11.8436 11.1268 11.7594C11.3394 12.4381 11.3817 12.542 11.4418 12.7835C11.1168 12.6946 10.7122 12.5414 10.348 12.2809L10.0761 12.0864L9.8043 12.2809C9.4388 12.5424 9.03469 12.6955 8.71035 12.7842C8.77139 12.5388 8.81534 12.4305 9.02554 11.7594C8.23454 11.846 8.29847 11.8361 8.20257 11.8506C7.81685 11.9083 7.29676 11.6352 6.94491 11.3546C7.18269 11.1661 7.51701 10.9545 7.88754 10.88Z" fill="white"/>
</g>
<defs>
<clipPath id="clip0_0_216">
<rect width="24" height="24" fill="white"/>
</clipPath>
</defs>
</svg>
