<svg width="25" height="24" viewBox="0 0 25 24" fill="none" xmlns="http://www.w3.org/2000/svg">
<g clip-path="url(#clip0_3977_10371)">
<path d="M24.461 21.4452L19.8159 16.7981C23.2916 12.1533 22.3439 5.57034 17.6991 2.09462C13.0543 -1.3811 6.47131 -0.433388 2.99559 4.21139C-0.480136 8.85616 0.46758 15.4392 5.11236 18.9149C8.84342 21.7069 13.968 21.7069 17.6991 18.9149L22.3462 23.562C22.9302 24.146 23.877 24.146 24.461 23.562C25.0449 22.978 25.0449 22.0312 24.461 21.4472L24.461 21.4452ZM11.4444 18.0179C7.31639 18.0179 3.96998 14.6715 3.96998 10.5435C3.96998 6.41542 7.31639 3.06901 11.4444 3.06901C15.5725 3.06901 18.9189 6.41542 18.9189 10.5435C18.9145 14.6697 15.5707 18.0136 11.4444 18.0179Z" fill="#DAA930"/>
<path d="M8.6136 12.8224C8.55106 13.1416 8.53606 13.3572 8.53516 13.3712L8.49738 13.9432L9.04443 13.9089C9.08116 13.9067 9.74485 13.8605 10.4946 13.536V14.8818H11.4578V13.536C12.2075 13.8605 12.8712 13.9066 12.9079 13.9089L13.4549 13.9432L13.4172 13.3712C13.4163 13.3572 13.4013 13.1416 13.3388 12.8224C14.3859 12.6142 15.1515 11.733 15.1877 11.6907L15.4761 11.3536L15.1868 11.0173C15.1629 10.9896 14.7328 10.4962 14.0856 10.159C14.7844 9.11108 14.8591 7.87965 14.8623 7.81975L14.8927 7.25662L14.3545 7.28834C14.3025 7.29139 13.3303 7.35599 12.4029 7.91281C12.2638 6.30529 11.3651 5.30646 11.3238 5.26134L10.9761 4.88184L10.6285 5.26127C10.5872 5.30639 9.6886 6.30526 9.54942 7.91277C8.62198 7.35589 7.64981 7.29133 7.59786 7.28827L7.05967 7.25656L7.08998 7.81968C7.09319 7.87962 7.16797 9.11102 7.86669 10.1589C7.21946 10.4962 6.7894 10.9896 6.76552 11.0173L6.47615 11.3535L6.76462 11.6906C6.80087 11.733 7.56634 12.6143 8.6136 12.8224ZM8.78752 10.881L9.70498 10.6964C8.7037 9.69822 8.97661 9.97574 8.93962 9.93628C8.93802 9.93457 8.93584 9.93227 8.93296 9.92925C8.49545 9.47144 8.2727 8.86387 8.16078 8.40871C8.59597 8.52585 9.17654 8.75889 9.61402 9.21663C9.61967 9.22254 9.62354 9.22656 9.62606 9.22913C9.66866 9.27254 9.32419 8.90326 10.6056 10.3003C10.5257 9.02196 10.4946 8.80226 10.4946 8.33108C10.4946 7.5339 10.7491 6.89183 10.9761 6.47773C11.2034 6.89214 11.4577 7.53404 11.4577 8.33108C11.4577 8.80196 11.4266 9.02287 11.3467 10.3003C12.623 8.9088 12.2861 9.27001 12.3266 9.22875C12.329 9.22629 12.3328 9.2224 12.3383 9.21663C12.7758 8.75886 13.3565 8.52578 13.7915 8.40868C13.6092 9.15009 13.2803 9.68607 12.9796 9.96755C12.9102 10.0325 12.9653 9.98068 12.2473 10.6964L13.1647 10.881C13.5353 10.9555 13.8696 11.1671 14.1073 11.3556C13.7561 11.6357 13.2307 11.9086 12.8498 11.8515C12.7522 11.8369 12.7968 11.8446 12.0268 11.7604C12.2394 12.4391 12.2817 12.543 12.3418 12.7845C12.0168 12.6955 11.6122 12.5424 11.248 12.2818L10.9761 12.0873L10.7043 12.2818C10.3388 12.5434 9.93466 12.6964 9.61033 12.7852C9.67136 12.5398 9.71531 12.4315 9.92551 11.7604C9.13452 11.8469 9.19844 11.8371 9.10254 11.8515C8.71682 11.9093 8.19674 11.6362 7.84489 11.3556C8.08266 11.1671 8.41698 10.9555 8.78752 10.881Z" fill="#DAA930"/>
</g>
<defs>
<clipPath id="clip0_3977_10371">
<rect width="24" height="24" fill="white" transform="translate(0.899975)"/>
</clipPath>
</defs>
</svg>
