<svg width="25" height="24" viewBox="0 0 25 24" fill="none" xmlns="http://www.w3.org/2000/svg">
<g clip-path="url(#clip0_3977_10546)">
<path d="M4.16793 18H19.8239C20.3058 18 20.7805 17.884 21.208 17.6617C21.6355 17.4394 22.0032 17.1174 22.2799 16.723C22.5566 16.3285 22.7343 15.8732 22.7978 15.3956C22.8614 14.918 22.8089 14.4321 22.6449 13.979L19.7929 6.094C19.3059 4.3417 18.2582 2.79719 16.8102 1.69667C15.3623 0.59615 13.5937 0.000212078 11.7749 1.01731e-09V1.01731e-09C9.88166 -2.95923e-05 8.04498 0.645588 6.56814 1.83026C5.09131 3.01492 4.06262 4.6678 3.65193 6.516L1.30193 14.116C1.16357 14.5647 1.13247 15.0396 1.21112 15.5025C1.28977 15.9654 1.47599 16.4034 1.75478 16.7812C2.03358 17.1591 2.39717 17.4662 2.81629 17.6778C3.23542 17.8895 3.69838 17.9999 4.16793 18Z" fill="#DAA930"/>
<path d="M7.19994 20C7.42945 21.1303 8.04266 22.1465 8.93568 22.8764C9.82869 23.6063 10.9466 24.005 12.0999 24.005C13.2533 24.005 14.3712 23.6063 15.2642 22.8764C16.1572 22.1465 16.7704 21.1303 16.9999 20H7.19994Z" fill="#DAA930"/>
</g>
<defs>
<clipPath id="clip0_3977_10546">
<rect width="24" height="24" fill="white" transform="translate(0.0999298)"/>
</clipPath>
</defs>
</svg>
