<svg width="16" height="16" viewBox="0 0 16 16" fill="none" xmlns="http://www.w3.org/2000/svg">
<path d="M10.571 6.66667H9.33332V5.42902C8.89428 5.36566 8.4488 5.33333 7.99998 5.33333C7.55117 5.33333 7.10569 5.36566 6.66665 5.42902V6.66667H5.42901C5.36564 7.1057 5.33332 7.55119 5.33332 8C5.33332 8.44881 5.36564 8.8943 5.42901 9.33333H6.66665V10.571C7.10569 10.6343 7.55117 10.6667 7.99998 10.6667C8.4488 10.6667 8.89428 10.6343 9.33332 10.571V9.33333H10.571C10.6343 8.8943 10.6667 8.44882 10.6667 8C10.6667 7.55118 10.6343 7.1057 10.571 6.66667Z" fill="white" stroke="white" stroke-width="21.3333"/>
</svg>
