<svg width="25" height="24" viewBox="0 0 25 24" fill="none" xmlns="http://www.w3.org/2000/svg">
<g clip-path="url(#clip0_3977_10714)">
<path d="M12.3 14.9922C10.6431 14.9922 9.29999 16.3353 9.29999 17.9922V23.9922H15.3V17.9922C15.3 16.3353 13.9568 14.9922 12.3 14.9922Z" fill="#DAA930"/>
<path d="M17.3 17.9924V23.9924H21.3C22.9568 23.9924 24.3 22.6492 24.3 20.9924V11.8714C24.3002 11.3519 24.0983 10.8527 23.737 10.4794L15.239 1.29237C13.7396 -0.329979 11.2089 -0.429588 9.58653 1.06985C9.50947 1.1411 9.43522 1.2153 9.36402 1.29237L0.881003 10.4764C0.508722 10.8512 0.299847 11.3581 0.299988 11.8864V20.9924C0.299988 22.6492 1.64314 23.9924 3.29999 23.9924H7.29997V17.9924C7.31867 15.2656 9.52025 13.0388 12.1784 12.9747C14.9255 12.9084 17.279 15.1731 17.3 17.9924Z" fill="#DAA930"/>
<path d="M12.3 14.9922C10.6431 14.9922 9.29999 16.3353 9.29999 17.9922V23.9922H15.3V17.9922C15.3 16.3353 13.9568 14.9922 12.3 14.9922Z" fill="#DAA930"/>
</g>
<defs>
<clipPath id="clip0_3977_10714">
<rect width="24" height="24" fill="white" transform="translate(0.299988)"/>
</clipPath>
</defs>
</svg>
