<svg width="25" height="24" viewBox="0 0 25 24" fill="none" xmlns="http://www.w3.org/2000/svg">
<g clip-path="url(#clip0_3977_10726)">
<path d="M24.607 22.2928L18.638 16.3238C20.2646 14.3344 21.0644 11.7959 20.8718 9.23335C20.6793 6.67082 19.5092 4.28032 17.6036 2.5563C15.698 0.832293 13.2026 -0.0933258 10.6336 -0.029094C8.06468 0.0351379 5.6187 1.08431 3.8016 2.9014C1.98451 4.71849 0.935345 7.16448 0.871114 9.73343C0.806882 12.3024 1.7325 14.7977 3.45651 16.7034C5.18052 18.609 7.57102 19.7791 10.1336 19.9716C12.6961 20.1642 15.2346 19.3644 17.224 17.7378L23.193 23.7068C23.3816 23.889 23.6342 23.9897 23.8964 23.9875C24.1586 23.9852 24.4094 23.88 24.5948 23.6946C24.7802 23.5092 24.8854 23.2584 24.8877 22.9962C24.89 22.734 24.7892 22.4814 24.607 22.2928ZM10.9 17.9998C9.31774 17.9998 7.77102 17.5306 6.45543 16.6515C5.13984 15.7725 4.11446 14.5231 3.50895 13.0613C2.90345 11.5994 2.74503 9.99091 3.05371 8.43906C3.36239 6.88722 4.12432 5.46175 5.24314 4.34293C6.36196 3.22411 7.78742 2.46218 9.33927 2.1535C10.8911 1.84482 12.4997 2.00325 13.9615 2.60875C15.4233 3.21425 16.6727 4.23963 17.5518 5.55522C18.4308 6.87082 18.9 8.41754 18.9 9.99979C18.8976 12.1208 18.054 14.1542 16.5542 15.654C15.0544 17.1538 13.021 17.9974 10.9 17.9998Z" fill="white"/>
<path d="M8.61359 12.8219C8.55105 13.1411 8.53605 13.3567 8.53515 13.3707L8.49736 13.9427L9.04442 13.9084C9.08115 13.9062 9.74484 13.86 10.4946 13.5356V14.8813H11.4578V13.5355C12.2075 13.86 12.8712 13.9061 12.9079 13.9084L13.4549 13.9427L13.4172 13.3707C13.4163 13.3567 13.4013 13.1411 13.3388 12.8219C14.3859 12.6137 15.1514 11.7325 15.1877 11.6902L15.4761 11.3531L15.1868 11.0169C15.1629 10.9891 14.7328 10.4958 14.0856 10.1585C14.7843 9.1106 14.8591 7.87916 14.8623 7.81926L14.8926 7.25614L14.3545 7.28785C14.3025 7.29091 13.3303 7.35551 12.4029 7.91232C12.2637 6.3048 11.3651 5.30597 11.3238 5.26085L10.9761 4.88135L10.6285 5.26079C10.5872 5.3059 9.68859 6.30477 9.54941 7.91228C8.62197 7.35541 7.6498 7.29084 7.59785 7.28778L7.05966 7.25607L7.08997 7.8192C7.09318 7.87913 7.16795 9.11053 7.86668 10.1584C7.21945 10.4957 6.78939 10.9891 6.76551 11.0168L6.47614 11.3531L6.76461 11.6901C6.80085 11.7325 7.56632 12.6138 8.61359 12.8219ZM8.78751 10.8805L9.70496 10.6959C8.6604 9.65457 9.00258 10.0016 8.93295 9.92876C8.49544 9.47095 8.27269 8.86338 8.16077 8.40822C8.59596 8.52536 9.17653 8.7584 9.61401 9.21615C9.71511 9.32193 9.24835 8.82011 10.6056 10.2998C10.5257 9.02147 10.4946 8.80177 10.4946 8.33059C10.4946 7.53342 10.7491 6.89135 10.9761 6.47724C11.2033 6.89165 11.4577 7.53355 11.4577 8.33059C11.4577 8.80147 11.4265 9.02238 11.3467 10.2998C12.699 8.82542 12.2402 9.31877 12.3383 9.21615C12.7758 8.75837 13.3565 8.5253 13.7915 8.40819C13.6092 9.1496 13.2803 9.68558 12.9796 9.96706C12.9102 10.032 12.9653 9.9802 12.2473 10.6959L13.1647 10.8805C13.5353 10.955 13.8696 11.1666 14.1073 11.3551C13.7561 11.6352 13.2307 11.9081 12.8498 11.851C12.7522 11.8364 12.7968 11.8441 12.0268 11.7599C12.2394 12.4386 12.2817 12.5425 12.3418 12.784C12.0168 12.6951 11.6122 12.5419 11.2479 12.2813L10.9761 12.0868L10.7043 12.2813C10.3388 12.5429 9.93465 12.696 9.61032 12.7847C9.67135 12.5393 9.7153 12.431 9.9255 11.7599C9.13451 11.8464 9.19843 11.8366 9.10253 11.851C8.71681 11.9088 8.19672 11.6357 7.84488 11.3551C8.08265 11.1666 8.41697 10.955 8.78751 10.8805Z" fill="white"/>
</g>
<defs>
<clipPath id="clip0_3977_10726">
<rect width="24" height="24" fill="white" transform="translate(0.899963)"/>
</clipPath>
</defs>
</svg>
