<svg width="25" height="24" viewBox="0 0 25 24" fill="none" xmlns="http://www.w3.org/2000/svg">
<g clip-path="url(#clip0_3977_10363)">
<path d="M23.421 9.0691L15.836 1.48311C14.8972 0.547099 13.6257 0.0214844 12.3 0.0214844C10.9743 0.0214844 9.70275 0.547099 8.76399 1.48311L1.179 9.0691C0.899425 9.34689 0.677769 9.6774 0.526882 10.0415C0.375995 10.4056 0.298877 10.796 0.3 11.1901V21.0071C0.3 21.8027 0.61607 22.5658 1.17868 23.1284C1.74129 23.691 2.50435 24.0071 3.3 24.0071H21.3C22.0956 24.0071 22.8587 23.691 23.4213 23.1284C23.9839 22.5658 24.3 21.8027 24.3 21.0071V11.1901C24.3011 10.796 24.224 10.4056 24.0731 10.0415C23.9222 9.6774 23.7006 9.34689 23.421 9.0691ZM15.3 22.0071H9.29999V18.0731C9.29999 17.2774 9.61606 16.5144 10.1787 15.9518C10.7413 15.3892 11.5043 15.0731 12.3 15.0731C13.0956 15.0731 13.8587 15.3892 14.4213 15.9518C14.9839 16.5144 15.3 17.2774 15.3 18.0731V22.0071ZM22.3 21.0071C22.3 21.2723 22.1946 21.5267 22.0071 21.7142C21.8196 21.9017 21.5652 22.0071 21.3 22.0071H17.3V18.0731C17.3 16.747 16.7732 15.4752 15.8355 14.5376C14.8978 13.5999 13.6261 13.0731 12.3 13.0731C10.9739 13.0731 9.70214 13.5999 8.76446 14.5376C7.82678 15.4752 7.29999 16.747 7.29999 18.0731V22.0071H3.3C3.03478 22.0071 2.78043 21.9017 2.59289 21.7142C2.40536 21.5267 2.3 21.2723 2.3 21.0071V11.1901C2.30093 10.9251 2.40619 10.6711 2.593 10.4831L10.178 2.90011C10.7417 2.33904 11.5047 2.02405 12.3 2.02405C13.0953 2.02405 13.8583 2.33904 14.422 2.90011L22.007 10.4861C22.1931 10.6733 22.2983 10.9261 22.3 11.1901V21.0071Z" fill="white"/>
</g>
<defs>
<clipPath id="clip0_3977_10363">
<rect width="24" height="24" fill="white" transform="translate(0.300003)"/>
</clipPath>
</defs>
</svg>
