<svg width="25" height="24" viewBox="0 0 25 24" fill="none" xmlns="http://www.w3.org/2000/svg">
<g clip-path="url(#clip0_3977_10731)">
<path d="M12.6999 12C13.8866 12 15.0466 11.6481 16.0333 10.9888C17.02 10.3295 17.789 9.39246 18.2432 8.2961C18.6973 7.19974 18.8161 5.99335 18.5846 4.82946C18.3531 3.66557 17.7816 2.59648 16.9425 1.75736C16.1034 0.918247 15.0343 0.346802 13.8704 0.115291C12.7065 -0.11622 11.5001 0.00259972 10.4038 0.456725C9.30743 0.910851 8.37036 1.67989 7.71107 2.66658C7.05178 3.65328 6.69989 4.81331 6.69989 6C6.70148 7.59081 7.33413 9.11601 8.459 10.2409C9.58388 11.3658 11.1091 11.9984 12.6999 12ZM12.6999 2C13.491 2 14.2644 2.2346 14.9222 2.67412C15.58 3.11365 16.0927 3.73836 16.3954 4.46927C16.6982 5.20017 16.7774 6.00444 16.623 6.78036C16.4687 7.55629 16.0877 8.26902 15.5283 8.82843C14.9689 9.38784 14.2562 9.7688 13.4803 9.92314C12.7043 10.0775 11.9001 9.99827 11.1692 9.69552C10.4383 9.39277 9.81354 8.88008 9.37401 8.22228C8.93449 7.56448 8.69989 6.79113 8.69989 6C8.69989 4.93914 9.12132 3.92172 9.87146 3.17157C10.6216 2.42143 11.639 2 12.6999 2Z" fill="white"/>
<path d="M12.6999 14C10.3138 14.0026 8.0261 14.9517 6.33885 16.639C4.6516 18.3262 3.70254 20.6139 3.69989 23C3.69989 23.2652 3.80525 23.5196 3.99278 23.7071C4.18032 23.8946 4.43467 24 4.69989 24C4.96511 24 5.21946 23.8946 5.407 23.7071C5.59453 23.5196 5.69989 23.2652 5.69989 23C5.69989 21.1435 6.43739 19.363 7.75014 18.0503C9.06289 16.7375 10.8434 16 12.6999 16C14.5564 16 16.3369 16.7375 17.6496 18.0503C18.9624 19.363 19.6999 21.1435 19.6999 23C19.6999 23.2652 19.8052 23.5196 19.9928 23.7071C20.1803 23.8946 20.4347 24 20.6999 24C20.9651 24 21.2195 23.8946 21.407 23.7071C21.5945 23.5196 21.6999 23.2652 21.6999 23C21.6972 20.6139 20.7482 18.3262 19.0609 16.639C17.3737 14.9517 15.086 14.0026 12.6999 14Z" fill="white"/>
</g>
<defs>
<clipPath id="clip0_3977_10731">
<rect width="24" height="24" fill="white" transform="translate(0.69989)"/>
</clipPath>
</defs>
</svg>
