<svg width="25" height="24" viewBox="0 0 25 24" fill="none" xmlns="http://www.w3.org/2000/svg">
<g clip-path="url(#clip0_3977_10722)">
<path d="M22.6549 13.6622L20.7549 6.82618C20.198 4.82351 18.9876 3.06447 17.3162 1.82865C15.6448 0.592832 13.6083 -0.0488349 11.5304 0.00564524C9.45242 0.0601253 7.45231 0.807625 5.84796 2.12933C4.24362 3.45103 3.1271 5.27108 2.6759 7.30018L1.2049 13.9152C1.04241 14.6461 1.04617 15.4042 1.21589 16.1335C1.38561 16.8628 1.71696 17.5446 2.18548 18.1287C2.654 18.7128 3.24772 19.1842 3.92281 19.5081C4.5979 19.832 5.33712 20.0002 6.0859 20.0002H7.1999C7.42942 21.1305 8.04263 22.1467 8.93565 22.8766C9.82866 23.6065 10.9465 24.0052 12.0999 24.0052C13.2533 24.0052 14.3712 23.6065 15.2642 22.8766C16.1572 22.1467 16.7704 21.1305 16.9999 20.0002H17.8379C18.6087 20.0002 19.3691 19.8221 20.0597 19.4796C20.7502 19.1372 21.3523 18.6397 21.8187 18.026C22.2852 17.4124 22.6035 16.6992 22.7487 15.9422C22.8939 15.1852 22.8622 14.4049 22.6559 13.6622H22.6549ZM12.0999 22.0002C11.4816 21.9976 10.8793 21.8041 10.3752 21.4461C9.87114 21.0881 9.48999 20.5831 9.2839 20.0002H14.9159C14.7098 20.5831 14.3287 21.0881 13.8246 21.4461C13.3205 21.8041 12.7182 21.9976 12.0999 22.0002ZM20.2259 16.8152C19.9473 17.1848 19.5862 17.4844 19.1715 17.6901C18.7568 17.8958 18.2998 18.002 17.8369 18.0002H6.0859C5.63668 18.0001 5.19322 17.8991 4.78824 17.7048C4.38326 17.5104 4.0271 17.2275 3.74606 16.8771C3.46502 16.5266 3.26626 16.1176 3.16446 15.68C3.06266 15.2425 3.06042 14.7877 3.1579 14.3492L4.6279 7.73318C4.98225 6.13939 5.85921 4.70978 7.11936 3.67163C8.37951 2.63347 9.95053 2.04635 11.5827 2.00359C13.2148 1.96083 14.8144 2.4649 16.1272 3.43565C17.44 4.4064 18.3906 5.78813 18.8279 7.36118L20.7279 14.1972C20.8535 14.6426 20.8735 15.1111 20.7863 15.5655C20.6992 16.02 20.5073 16.4478 20.2259 16.8152Z" fill="white"/>
</g>
<defs>
<clipPath id="clip0_3977_10722">
<rect width="24" height="24" fill="white" transform="translate(0.0999146)"/>
</clipPath>
</defs>
</svg>
