<svg width="42" height="42" viewBox="0 0 42 42" fill="none" xmlns="http://www.w3.org/2000/svg">
<path d="M29.7905 27.3625L30.6494 26.6636C31.0746 26.3175 31.4896 25.9462 31.8884 25.5473L31.8885 25.5473C36.2369 21.1989 37.2947 14.9913 37.336 14.7381C37.3897 14.408 37.1033 14.1212 36.7728 14.175C36.5203 14.2161 30.341 15.2694 25.994 19.5927L25.0535 20.5281L25.1426 19.2046C25.173 18.7515 25.1898 18.2929 25.1898 17.8295C25.1898 10.9045 21.5628 5.0547 21.4158 4.82123L21.4158 4.82117C21.2238 4.516 20.7771 4.516 20.5851 4.82117L20.5851 4.82123C20.4381 5.0547 16.8111 10.9045 16.8111 17.8295C16.8111 18.2929 16.8279 18.7515 16.8584 19.2046L16.9474 20.5281L16.0069 19.5927C11.6593 15.2688 5.47892 14.2158 5.22805 14.175L5.30839 13.6814L5.22805 14.175C4.89799 14.1212 4.61119 14.4078 4.6649 14.7381L29.7905 27.3625ZM29.7905 27.3625L30.8828 27.5446M29.7905 27.3625L30.8828 27.5446M30.8828 27.5446C34.3688 28.1255 37.0248 30.0297 37.1403 30.1137C37.4091 30.3091 37.4094 30.7115 37.1405 30.9073C36.9945 31.0134 33.3195 33.6431 28.9261 33.6431C26.1991 33.6431 23.7418 32.6289 22.2256 31.8243L21.4912 31.4347V32.266V36.917C21.4912 37.188 21.2715 37.4077 21.0005 37.4077C20.7295 37.4077 20.5098 37.188 20.5098 36.917V32.266V31.4347L19.7755 31.8243C18.2592 32.6289 15.8019 33.6431 13.0749 33.6431C8.68147 33.6431 5.00652 31.0134 4.86058 30.9073C4.59174 30.7117 4.59155 30.3094 4.86064 30.1137L4.86068 30.1136C4.97549 30.0301 7.63177 28.1256 11.1181 27.5446L12.2104 27.3625M30.8828 27.5446L12.2104 27.3625M12.2104 27.3625L11.3515 26.6636M12.2104 27.3625L11.3515 26.6636M11.3515 26.6636C10.9264 26.3176 10.5113 25.9461 10.1124 25.5473C5.76379 21.1987 4.70609 14.9909 4.66491 14.7381L11.3515 26.6636ZM36.0049 16.1216L36.2419 15.2689L35.3892 15.5059C33.3281 16.0789 29.5249 17.4491 26.6576 20.3164L26.9718 20.6306L26.6576 20.3164C25.9289 21.045 25.2513 21.8827 24.6385 22.8051L24.5887 22.88L24.5682 22.9675C24.0064 25.3596 23.1669 27.3902 22.4926 28.7842L21.9924 29.8182L23.09 29.4797C25.2273 28.8207 28.5947 27.4531 31.1945 24.8533C34.0616 21.9862 35.4318 18.1831 36.0049 16.1216ZM21.45 6.93995L21.0011 6.02982L20.5529 6.94026C19.4905 9.09838 17.7925 13.2568 17.7925 17.8295C17.7925 22.4016 19.4905 26.5296 20.5526 28.6679L21.0004 29.5695L21.4482 28.6679C22.5101 26.53 24.2083 22.402 24.2083 17.8295C24.2083 13.2455 22.5126 9.09471 21.45 6.93995ZM15.3433 20.3164L15.3433 20.3164C12.4762 17.4493 8.6731 16.0791 6.61154 15.506L6.47762 15.9877L5.99588 16.1216C6.56885 18.1827 7.93894 21.986 10.8062 24.8534L10.8063 24.8534C13.406 27.4531 16.7732 28.8206 18.9108 29.4797L20.0083 29.8182L19.5082 28.7842C18.8339 27.3902 17.9945 25.3596 17.4327 22.9675L17.4121 22.88L17.3624 22.8051C16.7496 21.8827 16.0719 21.045 15.3433 20.3164ZM13.9797 28.4466L13.8807 28.3906L13.7672 28.3829C11.3377 28.2188 8.90628 28.9719 6.83424 30.0686L5.99922 30.5105L6.83427 30.9524C8.21676 31.684 10.5332 32.6616 13.0748 32.6616C15.2091 32.6616 17.182 31.9724 18.5735 31.3217L19.7421 30.7751L18.5104 30.3914C17.249 29.9983 15.6319 29.381 13.9797 28.4466ZM23.4903 30.3914L22.2586 30.7751L23.4272 31.3217C24.8186 31.9723 26.7915 32.6616 28.926 32.6616C31.4676 32.6616 33.7837 31.6842 35.1666 30.9523L36.0015 30.5103L35.1665 30.0684C33.0946 28.9719 30.663 28.2188 28.2336 28.3828L28.1201 28.3905L28.0211 28.4465C26.3688 29.381 24.7517 29.9983 23.4903 30.3914Z" fill="white" stroke="white" stroke-width="1.00002"/>
</svg>
